# xmcd
#
# Track frame offsets:
#	150
#	17375
#	32431
#	45755
#	61921
#	76482
#	94668
#	109066
#	133399
#	149267
#	165353
#	181890
#	198696
#	213034
#	230778
#	251328
#	267423
#	278247
#	292228
#	310318
#	330807
#
# Disc length: 4620
#
# Revision: 2
# Processed by: cddbd v1.5.1PL0 Copyright (c) Steve Scherf et al.
# Submitted via: MusiCat 1.1
# Normalized: r1:TDELIM( - )
#
DISCID=23120a15
DTITLE=Verzamel Maxi Music - Disc 1 december 2004
DYEAR=1900
DGENRE=
TTITLE0=C. Aguilera and Missy Elliot - Car Wash
TTITLE1=Live - We deal in dreams
TTITLE2=Special D. - You
TTITLE3=Chingy - Balla Baby
TTITLE4=Elize - Shake
TTITLE5=Blue - Curtain falls
TTITLE6=Michael Gray - The Weekend
TTITLE7=Outkast - Prototype
TTITLE8=Shania Twain - Party for two
TTITLE9=Ron van den Beuken - Endless
TTITLE10=Novastar - Rome
TTITLE11=Ciara - Goodies
TTITLE12=Snow inc. - first track
TTITLE13=Within Temptation - stand my ground
TTITLE14=Keane - Bedshaped
TTITLE15=Candee Jay - Back for me
TTITLE16=Westlife - Aint that a kick in the head
TTITLE17=Kool and The Gang - Fresh
TTITLE18=Tina Turner - Open arms
TTITLE19=THC - Wil je weten hoe het voelt
TTITLE20=Gebroeders Ko - Tokkie he, Tokkie ho
EXTD=\n\n
EXTT0=
EXTT1=
EXTT2=
EXTT3=
EXTT4=
EXTT5=
EXTT6=
EXTT7=
EXTT8=
EXTT9=
EXTT10=
EXTT11=
EXTT12=
EXTT13=
EXTT14=
EXTT15=
EXTT16=
EXTT17=
EXTT18=
EXTT19=
EXTT20=
PLAYORDER=
